<mxfile host="app.diagrams.net" modified="2023-10-16T14:03:26.081Z" agent="Mozilla/5.0 (Windows NT 10.0; Win64; x64) AppleWebKit/537.36 (KHTML, like Gecko) Chrome/116.0.0.0 Safari/537.36" version="22.0.4" etag="eFyQnnIkHkAfPdDLmShz" type="github">
  <diagram name="Page-1" id="SCQJHe9sd6EOSC_qQugK">
    <mxGraphModel>
      <root>
        <mxCell id="0" />
        <mxCell id="1" parent="0" />
      </root>
    </mxGraphModel>
  </diagram>
</mxfile>
